<svg width="13" height="20" viewBox="0 0 13 20" xmlns="http://www.w3.org/2000/svg">
<path d="M3.5459 19.2959H10.4893C11.9922 19.2959 12.9941 18.3115 12.9941 16.8525V2.43848C12.9941 0.979492 11.9922 0.00390625 10.4893 0.00390625H3.5459C2.0166 0.00390625 0.99707 0.979492 0.99707 2.43848V16.8525C0.99707 18.3115 2.0166 19.2959 3.5459 19.2959ZM3.84473 17.4854C3.15039 17.4854 2.75488 17.1074 2.75488 16.4395V2.85156C2.75488 2.18359 3.15039 1.80566 3.84473 1.80566H4.20508V2.24512C4.20508 2.63184 4.45996 2.88672 4.83789 2.88672H9.16211C9.54004 2.88672 9.79492 2.63184 9.79492 2.24512V1.80566H10.1465C10.8408 1.80566 11.2363 2.19238 11.2363 2.86035V16.4395C11.2363 17.1074 10.8408 17.4854 10.1465 17.4854H3.84473ZM4.65332 16.791H9.34668C9.60156 16.791 9.79492 16.6152 9.79492 16.3428C9.79492 16.0791 9.60156 15.9033 9.34668 15.9033H4.65332C4.39844 15.9033 4.20508 16.0791 4.20508 16.3428C4.20508 16.6152 4.39844 16.791 4.65332 16.791Z" fill="white"/>
</svg>
