<svg width="20" height="17" viewBox="0 0 20 17" fill="none" xmlns="http://www.w3.org/2000/svg">
<path d="M10.0088 9.57715C10.3867 9.57715 10.7207 9.40137 11.1162 9.00586L18.7803 1.40332C18.4375 1.0957 17.8311 0.946289 16.9785 0.946289H2.80176C2.0459 0.946289 1.50977 1.08691 1.20215 1.36816L8.90137 9.00586C9.28809 9.40137 9.63086 9.57715 10.0088 9.57715ZM0.358398 14.8945L6.67773 8.63672L0.367188 2.40527C0.208984 2.68652 0.121094 3.15234 0.121094 3.81152V13.5234C0.121094 14.165 0.200195 14.6221 0.358398 14.8945ZM19.6416 14.8857C19.791 14.6133 19.8701 14.1562 19.8701 13.5234V3.81152C19.8701 3.16992 19.7822 2.7041 19.624 2.43164L13.3398 8.63672L19.6416 14.8857ZM3.0127 16.3887H17.1895C17.9629 16.3887 18.5078 16.2393 18.8242 15.9492L12.3906 9.55957L11.8457 10.0957C11.2393 10.6846 10.6592 10.9658 10.0088 10.9658C9.3584 10.9658 8.76953 10.6846 8.16309 10.0957L7.61816 9.55957L1.19336 15.9316C1.54492 16.2305 2.16016 16.3887 3.0127 16.3887Z" fill="white"/>
</svg>
