<?xml version="1.0" encoding="UTF-8"?>
<svg width="300px" height="311px" viewBox="0 0 300 311" version="1.1" xmlns="http://www.w3.org/2000/svg" xmlns:xlink="http://www.w3.org/1999/xlink">
    <!-- Generator: Sketch 58 (84663) - https://sketch.com -->
    <title>Group Copy 2</title>
    <desc>Created with Sketch.</desc>
    <g id="Page-1" stroke="none" stroke-width="1" fill="none" fill-rule="evenodd">
        <g id="Group-Copy-2">
            <circle id="Oval" fill="#272727" cx="150" cy="161" r="150"></circle>
            <g id="smart-home" transform="translate(13.000000, 0.000000)" fill="#D1B997" fill-rule="nonzero">
                <polygon id="Path" points="17.0519618 126.457874 136.415695 22.6392108 189.830965 69.1154743 201 56.1958944 136.415695 0 0 118.637678 0 268 59.6818664 268 59.6818664 250.887974 17.0519618 250.887974"></polygon>
                <rect id="Rectangle" x="111" y="251" width="17" height="17"></rect>
                <rect id="Rectangle" x="77" y="251" width="17" height="17"></rect>
                <path d="M247.5,89 L196.5,89 C182.416562,89 171,100.448542 171,114.571429 L171,242.428571 C171,256.551458 182.416562,268 196.5,268 L247.5,268 C261.583438,268 273,256.551458 273,242.428571 L273,114.571429 C273,100.448542 261.583438,89 247.5,89 Z M256,242.428571 C256,247.136378 252.194656,250.952381 247.5,250.952381 L196.5,250.952381 C191.805344,250.952381 188,247.136378 188,242.428571 L188,114.571429 C188,109.863622 191.805344,106.047619 196.5,106.047619 L247.5,106.047619 C252.194656,106.047619 256,109.863622 256,114.571429 L256,242.428571 Z" id="Shape"></path>
                <rect id="Rectangle" x="205" y="123" width="34" height="17"></rect>
                <rect id="Rectangle" x="213" y="217" width="17" height="17"></rect>
            </g>
            <g id="wifi" transform="translate(49.000000, 130.000000)" fill="#D1B997" fill-rule="nonzero">
                <path d="M82.4163376,59.0164176 C76.288937,52.8724647 67.8284014,49.0676471 58.4997566,49.0676471 C49.1701379,49.0676471 40.7096024,52.8724647 34.5826887,59.0164176 L21.0829321,45.4791176 C30.6691371,35.8667412 43.9045172,29.9117353 58.4997566,29.9117353 C73.0949959,29.9117353 86.3298891,35.8667412 95.916581,45.4791176 L82.4163376,59.0164176 Z M43.191723,67.6493941 L58.4997566,83 L73.8077901,67.6493941 C69.8898566,63.7225176 64.4776846,61.2925706 58.4997566,61.2925706 C52.5213416,61.2925706 47.1096565,63.7225176 43.191723,67.6493941 Z M58.4997566,19.1539588 C76.0532864,19.1539588 91.9708953,26.3134412 103.49927,37.8758294 L117,24.3385294 C102.011847,9.30820588 81.3193941,0 58.5002434,0 C35.680119,0 14.9876657,9.30820588 0,24.3385294 L13.5002434,37.8758294 C25.0286178,26.3134412 40.9467136,19.1539588 58.4997566,19.1539588 Z" id="Shape"></path>
            </g>
        </g>
    </g>
</svg>