<?xml version="1.0" encoding="UTF-8"?>
<svg width="338px" height="311px" viewBox="0 0 338 311" version="1.1" xmlns="http://www.w3.org/2000/svg" xmlns:xlink="http://www.w3.org/1999/xlink">
    <!-- Generator: Sketch 58 (84663) - https://sketch.com -->
    <title>Group</title>
    <desc>Created with Sketch.</desc>
    <g id="Page-1" stroke="none" stroke-width="1" fill="none" fill-rule="evenodd">
        <g id="Group">
            <circle id="Oval" fill="#272727" cx="150" cy="161" r="150"></circle>
            <g id="apartment" transform="translate(13.000000, 0.000000)" fill="#D1B997" fill-rule="nonzero">
                <polygon id="Path" points="90 73 106 73 106 89 90 89"></polygon>
                <polygon id="Path" points="90 108 106 108 106 124 90 124"></polygon>
                <polygon id="Path" points="162 108 178 108 178 124 162 124"></polygon>
                <polygon id="Path" points="198 108 214 108 214 124 198 124"></polygon>
                <polygon id="Path" points="162 144 178 144 178 160 162 160"></polygon>
                <polygon id="Path" points="198 144 214 144 214 160 198 160"></polygon>
                <polygon id="Path" points="162 179 178 179 178 195 162 195"></polygon>
                <polygon id="Path" points="198 179 214 179 214 195 198 195"></polygon>
                <polygon id="Path" points="162 216 178 216 178 232 162 232"></polygon>
                <polygon id="Path" points="198 216 214 216 214 232 198 232"></polygon>
                <polygon id="Path" points="54 108 70 108 70 124 54 124"></polygon>
                <polygon id="Path" points="90 144 106 144 106 160 90 160"></polygon>
                <polygon id="Path" points="54 144 70 144 70 160 54 160"></polygon>
                <polygon id="Path" points="90 179 106 179 106 195 90 195"></polygon>
                <polygon id="Path" points="54 179 70 179 70 195 54 195"></polygon>
                <path d="M249.97857,252.296875 L249.97857,72.0846719 L141.851562,72.0846719 L141.851562,34.6253906 L123.830133,37.628875 L123.830133,0 L36.0423359,0 L36.0423359,52.2605234 L18.0214297,55.2640078 L18.0214297,252.296875 L0,252.296875 L0,268 L268,268 L268,252.296875 L249.97857,252.296875 Z M233.674877,87.1330049 L233.674877,252.157635 L141.261084,252.157635 L141.261084,87.1330049 L233.674877,87.1330049 Z M51.4876847,15.8423645 L108.256158,15.8423645 L108.256158,40.6636408 L51.4876847,50.1674877 L51.4876847,15.8423645 Z M34.3251232,68.2287775 L126.738916,52.8078818 L126.738916,71.7506043 L126.738916,252.157635 L106.401926,252.157635 L106.401926,216.076334 L54.6621137,216.076334 L54.6621137,252.157635 L34.3251232,252.157635 L34.3251232,68.2287775 Z M89.773399,252.157635 L69.9704433,252.157635 L69.9704433,232.35468 L89.773399,232.35468 L89.773399,252.157635 Z" id="Shape"></path>
            </g>
            <g id="verified" transform="translate(236.000000, 172.000000)" fill="#272727" fill-rule="nonzero" stroke="#D1B997" stroke-linejoin="round" stroke-width="12">
                <path d="M48.4778023,-5.38698798 L48.7159966,-5.29710601 L48.8861401,-5.22992237 L89.7196,11.6177242 C93.3492071,13.1153758 95.7898123,16.565047 95.9871393,20.4777119 L95.9928537,20.6288795 L95.9980985,20.8371508 L96,20.9881965 L96,41.4687779 C96,72.1163416 77.3628665,99.6796628 48.8292634,111.253278 C46.3738797,112.248934 43.6256135,112.248934 41.1701854,111.253054 C12.9407771,99.8027839 -5.62595656,72.6861561 -5.99475161,42.3503995 L-6,41.4687779 L-6,20.9881965 C-6,17.0615912 -3.72865728,13.497175 -0.184986073,11.8234873 L-0.048836465,11.7612487 L0.142710317,11.676559 L0.28052655,11.617672 L41.1130556,-5.22959048 C43.4055672,-6.17585638 45.9638498,-6.25221785 48.3062136,-5.44877405 L48.4778023,-5.38698798 Z M40.875838,58.2738482 L30.4456484,47.9531386 C31.1848294,48.6845608 31.1848294,49.8972922 30.4453754,50.6288909 C29.7414813,51.3253074 28.6258172,51.3253344 27.9215301,50.6283506 L36.6556399,59.2707831 L40.8758135,63.4466598 L63.0782766,41.4774994 C62.3742245,42.1741616 61.2585604,42.1741885 60.5544562,41.4774749 C59.8151407,40.7459196 59.8152006,39.5331882 60.55452,38.8017226 L40.875838,58.2738482 Z" id="Shape"></path>
            </g>
        </g>
    </g>
</svg>