<?xml version="1.0" encoding="UTF-8"?>
<svg width="300px" height="311px" viewBox="0 0 300 311" version="1.1" xmlns="http://www.w3.org/2000/svg" xmlns:xlink="http://www.w3.org/1999/xlink">
    <!-- Generator: Sketch 58 (84663) - https://sketch.com -->
    <title>Group Copy</title>
    <desc>Created with Sketch.</desc>
    <g id="Page-1" stroke="none" stroke-width="1" fill="none" fill-rule="evenodd">
        <g id="Group-Copy">
            <circle id="Oval" fill="#272727" cx="150" cy="161" r="150"></circle>
            <g id="sustainable" transform="translate(14.000000, 0.000000)" fill="#D1B997" fill-rule="nonzero">
                <path d="M263.677012,144.44429 L218.379715,99.1294478 L218.379715,34.2967834 C218.379715,29.9114763 214.8211,26.3573303 210.430279,26.3573303 L173.332908,26.3573303 C168.942087,26.3573303 165.383472,29.9114763 165.383472,34.2967834 L165.383472,46.10672 L140.117099,20.8286588 C138.684544,19.3958357 136.75722,18.5729448 134.736738,18.5109175 C134.656002,18.5088501 134.575265,18.4985124 134.494529,18.4985124 C134.494529,18.4985124 134.494529,18.4985124 134.492459,18.4985124 C134.492459,18.4985124 134.492459,18.4985124 134.490389,18.4985124 C132.38296,18.4985124 130.360408,19.3358765 128.869889,20.8245239 L86.2120527,63.4308549 C84.0031857,31.8922042 49.7502234,3.08687578 48.2452128,1.83599854 C45.2993668,-0.611999512 41.0244746,-0.611999512 38.0786286,1.83599854 C36.5239346,3.1282271 0,33.8439864 0,66.5921631 C0,93.1086959 23.0243833,109.202629 34.1680857,115.440475 L5.12987101,144.45256 C2.02669241,147.55391 2.02669241,152.580162 5.13194104,155.679443 C6.68456509,157.230118 8.71746813,158.005455 10.7524407,158.005455 C12.7874137,158.005455 14.8223868,157.22805 16.3750114,155.677376 L35.1948879,136.874931 L35.1948879,255.121094 L18.4720892,255.121094 C14.0833378,255.121094 10.5226527,258.67524 10.5226527,263.060547 C10.5226527,267.445854 14.0833378,271 18.4720892,271 L247.571123,271 C251.959874,271 255.520559,267.445854 255.520559,263.060547 C255.520559,258.67524 251.959874,255.121094 247.571123,255.121094 L233.785889,255.121094 L233.785889,137.015526 L252.423591,155.662903 C255.52677,158.766319 260.559343,158.770455 263.666661,155.673241 C266.77398,152.573959 266.778121,147.547707 263.677012,144.44429 Z M181.280275,42.2362366 L202.480842,42.2362366 L202.480842,83.2236633 L181.280275,62.0125044 L181.280275,42.2362366 Z M217.887016,217.185394 L162.383802,217.185394 C159.659464,204.300323 148.190745,194.599304 134.490389,194.599304 C120.792102,194.599304 109.321313,204.300323 106.596975,217.185394 L51.0937609,217.185394 L51.0937609,120.989823 L67.8724542,104.228066 C69.5617094,102.698067 71.2344034,101.039879 72.8449926,99.2597046 L134.486248,37.6731185 L217.887016,121.120079 L217.887016,217.185394 Z M15.898873,66.5921631 C15.898873,53.7856601 24.4279559,40.400238 31.5824488,31.427002 C35.7724642,26.1712491 40.0100937,21.7652666 43.1629557,18.705269 C46.3158183,21.767334 50.5513777,26.1712491 54.7413932,31.427002 C61.8979561,40.400238 70.424969,53.7856601 70.424969,66.5921631 C70.424969,75.3441695 66.3260408,82.6798934 61.1423457,88.4670105 L57.0165055,92.5876692 C55.0374265,94.3678434 53.0190153,95.9453963 51.0937609,97.3141252 L51.0937609,57.9083862 C51.0937609,53.5230791 47.5351458,49.9689331 43.1443244,49.9689331 C38.755573,49.9689331 35.1948879,53.5230791 35.1948879,57.9083862 L35.1948879,97.338936 C26.5105429,91.1920621 15.898873,80.7818681 15.898873,66.5921631 Z M51.0937609,234.652191 L105.980065,234.652191 L105.980065,255.121094 L51.0937609,255.121094 L51.0937609,234.652191 Z M121.878938,255.121094 L121.878938,223.071755 C121.878938,216.126801 127.536702,210.476143 134.490389,210.476143 C141.444075,210.476143 147.101838,216.126801 147.101838,223.071755 L147.101838,255.121094 L121.878938,255.121094 Z M162.998641,255.121094 L162.998641,234.650124 L217.887016,234.650124 L217.887016,255.121094 L162.998641,255.121094 Z" id="Shape"></path>
                <polygon id="Shape" points="108 162 82 162 82 136 108 136"></polygon>
                <polygon id="Shape-Copy" points="184 162 158 162 158 136 184 136"></polygon>
            </g>
        </g>
    </g>
</svg>